Coordinates
version=1
nRows=11
nColumns=46
inDegrees=yes

Units are S.I. units (second, meters, Newtons, ...)
Angles are in degrees.

endheader
time	pelvis_tilt	pelvis_list	pelvis_rotation	pelvis_tx	pelvis_ty	pelvis_tz	bb_angle	bb_tx	bb_ty	bb_tz	hip_flexion_r	hip_adduction_r	hip_rotation_r	knee_angle_r	knee_angle_r_beta	ankle_angle_r	subtalar_angle_r	mtp_angle_r	crank_angle_r	hip_flexion_l	hip_adduction_l	hip_rotation_l	knee_angle_l	knee_angle_l_beta	ankle_angle_l	subtalar_angle_l	mtp_angle_l	crank_angle_l	lumbar_extension	lumbar_bending	lumbar_rotation	arm_flex_r	arm_add_r	arm_rot_r	elbow_flex_r	pro_sup_r	wrist_flex_r	wrist_dev_r	arm_flex_l	arm_add_l	arm_rot_l	elbow_flex_l	pro_sup_l	wrist_flex_l	wrist_dev_l
      0.00500000	    -21.68554316	      4.87188582	      4.34403556	      0.08454392	      1.07211347	     -0.25586855	      0.00000000	      0.50000000	      0.00000000	      0.25000000	     46.26830079	    -12.02574283	     -4.40864313	     48.24192680	      0.84198046	     20.76512749	     -0.39674474	      0.00000000	      0.00000000	     94.67851598	     -0.36570308	     -3.31938728	     95.74902034	      1.67113566	     24.10791434	     -5.40476499	      0.00000000	      0.00000000	    -47.29544915	      0.52607329	    -69.45300817	      0.00000000	     -7.61865741	      0.00000000	     74.68056638	     45.28644269	      0.00000000	      0.00000000	      0.00000000	     -7.61865743	      0.00000000	     74.68056638	     45.28644269	      0.00000000	      0.00000000
      0.01000000	    -21.69125368	      4.84469448	      4.37416674	      0.08460226	      1.07208574	     -0.25592744	      0.00000000	      0.50000000	      0.00000000	      0.25000000	     46.25942930	    -12.03804105	     -4.46592688	     48.24344477	      0.84200695	     20.83857958	     -0.26215171	      0.00000000	      0.00000000	     94.69693724	     -0.33379458	     -3.28897488	     95.76382751	      1.67139409	     24.08971639	     -5.37068045	      0.00000000	      0.00000000	    -47.34211118	      0.58407767	    -70.25376703	      0.00000000	     -7.82181184	      0.00000000	     74.69491579	     45.26086152	      0.00000000	      0.00000000	      0.00000000	     -7.82181186	      0.00000000	     74.69491579	     45.26086152	      0.00000000	      0.00000000
      0.01500000	    -21.70611164	      4.82687752	      4.37489673	      0.08463254	      1.07203618	     -0.25590680	      0.00000000	      0.50000000	      0.00000000	      0.25000000	     46.27708304	    -12.01853573	     -4.46157385	     48.25620082	      0.84222959	     20.85039092	     -0.24854969	      0.00000000	      0.00000000	     94.71699112	     -0.33230271	     -3.25500920	     95.77372903	      1.67156691	     24.11606713	     -5.30699521	      0.00000000	      0.00000000	    -47.28683743	      0.57980778	    -69.48074814	      0.00000000	     -8.01029851	      0.00000000	     74.70723002	     45.24302244	      0.00000000	      0.00000000	      0.00000000	     -8.01029853	      0.00000000	     74.70723002	     45.24302244	      0.00000000	      0.00000000
      0.02000000	    -21.65374170	      4.83593557	      4.38994425	      0.08476548	      1.07225284	     -0.25577749	      0.00000000	      0.50000000	      0.00000000	      0.25000000	     46.19312839	    -12.02536630	     -4.49443606	     48.23151827	      0.84179880	     20.82173890	     -0.31087735	      0.00000000	      0.00000000	     94.64610036	     -0.36406978	     -3.28462780	     95.76057031	      1.67133725	     24.07371440	     -5.27684219	      0.00000000	      0.00000000	    -47.42166738	      0.55016153	    -70.00859734	      0.00000000	     -8.25106196	      0.00000000	     74.72542374	     45.20910837	      0.00000000	      0.00000000	      0.00000000	     -8.25106199	      0.00000000	     74.72542374	     45.20910837	      0.00000000	      0.00000000
      0.02500000	    -21.66595790	      4.88030691	      4.36497174	      0.08474615	      1.07223764	     -0.25565509	      0.00000000	      0.50000000	      0.00000000	      0.25000000	     46.23588021	    -11.97723702	     -4.30669040	     48.26061640	      0.84230666	     20.61308633	     -0.74304723	      0.00000000	      0.00000000	     94.64889776	     -0.37138250	     -3.33477598	     95.75289101	      1.67120322	     24.04099480	     -5.59316073	      0.00000000	      0.00000000	    -47.28633324	      0.39893346	    -68.06265619	      0.00000000	     -8.44331789	      0.00000000	     74.73739713	     45.19362093	      0.00000000	      0.00000000	      0.00000000	     -8.44331791	      0.00000000	     74.73739713	     45.19362093	      0.00000000	      0.00000000
      0.03000000	    -21.64806399	      4.82931839	      4.39397978	      0.08477680	      1.07221956	     -0.25576603	      0.00000000	      0.50000000	      0.00000000	      0.25000000	     46.20028221	    -12.00990872	     -4.46002924	     48.26197824	      0.84233042	     20.82689016	     -0.31380242	      0.00000000	      0.00000000	     94.65385833	     -0.33354285	     -3.24308332	     95.77455782	      1.67158137	     24.06731839	     -5.29483623	      0.00000000	      0.00000000	    -47.51726099	      0.44854014	    -69.01810040	      0.00000000	     -8.60940264	      0.00000000	     74.74789731	     45.17944733	      0.00000000	      0.00000000	      0.00000000	     -8.60940266	      0.00000000	     74.74789731	     45.17944733	      0.00000000	      0.00000000
      0.03500000	    -21.67132690	      4.86714782	      4.37051554	      0.08477915	      1.07220876	     -0.25569852	      0.00000000	      0.50000000	      0.00000000	      0.25000000	     46.24362723	    -12.01697498	     -4.42102380	     48.26325023	      0.84235262	     20.73602937	     -0.48776507	      0.00000000	      0.00000000	     94.66120732	     -0.37404420	     -3.30728079	     95.76305430	      1.67138060	     24.08241066	     -5.34734287	      0.00000000	      0.00000000	    -47.51426643	      0.31515647	    -68.03769002	      0.00000000	     -8.71821202	      0.00000000	     74.75448930	     45.17198011	      0.00000000	      0.00000000	      0.00000000	     -8.71821204	      0.00000000	     74.75448930	     45.17198011	      0.00000000	      0.00000000
      0.04000000	    -21.68342774	      4.79365763	      4.37117948	      0.08478709	      1.07211099	     -0.25568815	      0.00000000	      0.50000000	      0.00000000	      0.25000000	     46.24420161	    -11.94027149	     -4.43158098	     48.26236006	      0.84233709	     20.78783280	     -0.45860004	      0.00000000	      0.00000000	     94.71759939	     -0.38160575	     -3.22122927	     95.80153759	      1.67205226	     24.05183847	     -5.29151414	      0.00000000	      0.00000000	    -47.50875584	      0.29189890	    -66.95858982	      0.00000000	     -8.85986254	      0.00000000	     74.76282905	     45.16255768	      0.00000000	      0.00000000	      0.00000000	     -8.85986256	      0.00000000	     74.76282905	     45.16255768	      0.00000000	      0.00000000
      0.04500000	    -21.70222921	      4.69072048	      4.37526883	      0.08479043	      1.07201437	     -0.25572860	      0.00000000	      0.50000000	      0.00000000	      0.25000000	     46.24692161	    -11.87433251	     -4.53056756	     48.24891391	      0.84210241	     20.83748222	     -0.27901235	      0.00000000	      0.00000000	     94.77354940	     -0.39289757	     -3.10807077	     95.83363100	      1.67261240	     24.12355943	     -5.11761300	      0.00000000	      0.00000000	    -47.42822395	      0.29853347	    -63.96434865	      0.00000000	     -9.19056784	      0.00000000	     74.78372399	     45.13642657	      0.00000000	      0.00000000	      0.00000000	     -9.19056786	      0.00000000	     74.78372399	     45.13642657	      0.00000000	      0.00000000
      0.05000000	    -21.62466283	      4.78164622	      4.41783255	      0.08478777	      1.07220295	     -0.25576288	      0.00000000	      0.50000000	      0.00000000	      0.25000000	     46.17964421	    -11.99181958	     -4.53971682	     48.28168454	      0.84267436	     20.79989482	     -0.38941995	      0.00000000	      0.00000000	     94.65829003	     -0.32243167	     -3.20646731	     95.78849015	      1.67182454	     24.04093124	     -5.31018175	      0.00000000	      0.00000000	    -47.76638181	      0.07784561	    -65.88754068	      0.00000000	     -9.36381211	      0.00000000	     74.79408384	     45.12403236	      0.00000000	      0.00000000	      0.00000000	     -9.36381213	      0.00000000	     74.79408384	     45.12403236	      0.00000000	      0.00000000
      0.05500000	    -21.63121189	      4.78391281	      4.42647801	      0.08474425	      1.07218576	     -0.25578334	      0.00000000	      0.50000000	      0.00000000	      0.25000000	     46.19217881	    -11.98735523	     -4.49988976	     48.28706583	      0.84276828	     20.79357007	     -0.40866846	      0.00000000	      0.00000000	     94.67364018	     -0.30511074	     -3.19956001	     95.79194714	      1.67188487	     24.02971131	     -5.30554122	      0.00000000	      0.00000000	    -47.84320585	     -0.00482688	    -64.75434035	      0.00000000	     -9.72444545	      0.00000000	     74.81618223	     45.09769059	      0.00000000	      0.00000000	      0.00000000	     -9.72444546	      0.00000000	     74.81618223	     45.09769059	      0.00000000	      0.00000000
